<svg xmlns="http://www.w3.org/2000/svg" width="541" height="182" viewBox="0 0 541 182">
  <metadata><?xpacket begin="﻿" id="W5M0MpCehiHzreSzNTczkc9d"?>
<x:xmpmeta xmlns:x="adobe:ns:meta/" x:xmptk="Adobe XMP Core 5.6-c138 79.159824, 2016/09/14-01:09:01        ">
   <rdf:RDF xmlns:rdf="http://www.w3.org/1999/02/22-rdf-syntax-ns#">
      <rdf:Description rdf:about=""/>
   </rdf:RDF>
</x:xmpmeta>
                                                                                                    
                                                                                                    
                                                                                                    
                                                                                                    
                                                                                                    
                                                                                                    
                                                                                                    
                                                                                                    
                                                                                                    
                                                                                                    
                                                                                                    
                                                                                                    
                                                                                                    
                                                                                                    
                                                                                                    
                                                                                                    
                                                                                                    
                                                                                                    
                                                                                                    
                                                                                                    
                           
<?xpacket end="w"?></metadata>
<defs>
    <style>
      .cls-1 {
        fill: none;
        stroke: #fff;
        stroke-width: 6px;
        fill-rule: evenodd;
      }
    </style>
  </defs>
  <path class="cls-1" d="M34,30l1,12-1,8v9l-1,8v8a63.846,63.846,0,0,1,0,9c-0.4,2.854-.236,12.659,0,16a60.347,60.347,0,0,1,0,7s-0.236,4.439,0,8,0,11,0,11a31.68,31.68,0,0,0,0,5,54.191,54.191,0,0,1,0,7c0-2.205-.226,3.285,1,5,2.943,2.45,12,3,12,3s4.063,0.171,9,0,18,0,18,0,11.649-.561,19-1,23.22,0.439,28,0,15.248,1.171,24,1,16.548,0.171,26,0,18.947-1.293,32-2,24.511-1.293,28-1,12.447,1.9,21,3,7.66-.366,24,1,22.524,4.634,42,3,22.552-1.1,35-2,13.845-.463,23-1,0.7-.293,24-2,30.823-.829,42,0,15.115,1.9,23,2,19,0,19,0l14-2,4-2s8.243-14.1,8-18-0.485-16.732-1-23,3.243-21,2-26a90.125,90.125,0,0,1-2-17c0.121-2.585,0-23,0-23l-2-3s-1.949-4.146-5-4-6.514-.146-14,0-24,.488-31,0-24.3-2.244-29-2-15.234-.976-23-1-17.533-1.341-26-1-13.655-.439-26-1-22.861-3.537-30-3-3.882.927-16,2-15.182,2.2-27,1a175.831,175.831,0,0,0-29-1c-10.79.439-27.967-1.171-34-1s-14.817,1.2-26,1-24.209-1.073-32,0-22,1-22,1-8.159.024-17,1-12.365,1.024-23,1-25.844-2.8-30-3-15.315-1.171-18-1-8.548-.2-11,2A11.245,11.245,0,0,0,34,30Z"/>
</svg>
