<svg xmlns="http://www.w3.org/2000/svg" width="541" height="182" viewBox="0 0 541 182">
  <metadata><?xpacket begin="﻿" id="W5M0MpCehiHzreSzNTczkc9d"?>
<x:xmpmeta xmlns:x="adobe:ns:meta/" x:xmptk="Adobe XMP Core 5.6-c138 79.159824, 2016/09/14-01:09:01        ">
   <rdf:RDF xmlns:rdf="http://www.w3.org/1999/02/22-rdf-syntax-ns#">
      <rdf:Description rdf:about=""/>
   </rdf:RDF>
</x:xmpmeta>
                                                                                                    
                                                                                                    
                                                                                                    
                                                                                                    
                                                                                                    
                                                                                                    
                                                                                                    
                                                                                                    
                                                                                                    
                                                                                                    
                                                                                                    
                                                                                                    
                                                                                                    
                                                                                                    
                                                                                                    
                                                                                                    
                                                                                                    
                                                                                                    
                                                                                                    
                                                                                                    
                           
<?xpacket end="w"?></metadata>
<defs>
    <style>
      .cls-1 {
        fill: none;
        stroke: #fff;
        stroke-width: 6px;
        fill-rule: evenodd;
      }
    </style>
  </defs>
  <path class="cls-1" d="M34,30l1,12-1,8v9l-1,8v8a63.846,63.846,0,0,1,0,9c-0.4,2.854-.236,12.659,0,16a60.347,60.347,0,0,1,0,7s-0.236,4.439,0,8,0,11,0,11a31.68,31.68,0,0,0,0,5,54.191,54.191,0,0,1,0,7c0-2.205-.226,3.285,1,5,2.943,2.45,12,3,12,3s4.063,0.171,9,0,18,0,18,0,11.649-.561,19-1,23.22,0.439,28,0,17.248-.829,26-1,20.548,4.171,30,4,19.947,0.707,33,0,20.511-1.293,24-1,15.447,0.9,24,2,8.66,0.634,25,2,19.524-.366,39-2,12.469-.79,24.946-0.474c10.128,0.257,23.46,1.23,33.054.474,9.142-.72,7.7-0.293,31-2s23.823-.829,35,0,11.115-.1,19,0,19,0,19,0l14-2a22.09,22.09,0,0,0,8-7c2.967-4.584,4.243-9.1,4-13s1.236-16.74,1.49-23.024S509.389,81,508,76c-1.379-4.964,2.149-18.449,2-24-0.069-2.587-2-16-2-16l-2-3s-1.949-4.146-5-4-6.514-.146-14,0-23-1.512-30-2-27.3.756-32,1-17.234-.976-25-1-15.533-.341-24,0-13.655-.439-26-1-21.861.463-29,1-8.882-3.073-21-2-16.182,1.2-28,0-11.21-2.439-22-2-26.545,1.035-32.558,1.553C203,25.8,197.327,24.449,186,24c-11.176-.443-20.209-2.073-28-1s-21,4-21,4-17.159-3.976-26-3-26,0-26,0-14.844-.8-19-1-15.315-1.171-18-1-8.548-.2-11,2A11.245,11.245,0,0,0,34,30Z"/>
</svg>
