<svg xmlns="http://www.w3.org/2000/svg" width="541" height="182" viewBox="0 0 541 182">
  <metadata><?xpacket begin="﻿" id="W5M0MpCehiHzreSzNTczkc9d"?>
<x:xmpmeta xmlns:x="adobe:ns:meta/" x:xmptk="Adobe XMP Core 5.6-c138 79.159824, 2016/09/14-01:09:01        ">
   <rdf:RDF xmlns:rdf="http://www.w3.org/1999/02/22-rdf-syntax-ns#">
      <rdf:Description rdf:about=""/>
   </rdf:RDF>
</x:xmpmeta>
                                                                                                    
                                                                                                    
                                                                                                    
                                                                                                    
                                                                                                    
                                                                                                    
                                                                                                    
                                                                                                    
                                                                                                    
                                                                                                    
                                                                                                    
                                                                                                    
                                                                                                    
                                                                                                    
                                                                                                    
                                                                                                    
                                                                                                    
                                                                                                    
                                                                                                    
                                                                                                    
                           
<?xpacket end="w"?></metadata>
<defs>
    <style>
      .cls-1 {
        fill: none;
        stroke: #fff;
        stroke-width: 6px;
        fill-rule: evenodd;
      }
    </style>
  </defs>
  <path class="cls-1" d="M35,34L34,44l-1,8,2,9-1,8v8s-0.6,7.146-1,10,0.764,11.659,1,15a60.347,60.347,0,0,1,0,7s-0.236,4.439,0,8-2,11-2,11,2.764,2.854,3,5a54.191,54.191,0,0,1,0,7c0-2.205-.226,3.285,1,5,2.943,2.45,9,3,9,3s4.063,0.171,9,0,18,0,18,0,11.649-.561,19-1,23.22,0.439,28,0c2.58-.237,19.531.956,25.138,1.306S169.869,147.093,175,147c9.452-.171,23.947.707,37,0s22.511-1.293,26-1,16.447-.1,25,1,14.66-1.366,31,0,14.524-.366,34-2,17.524,2.684,30,3c10.129,0.257,10.406,3.756,20,3,9.142-.72,7.7-4.293,31-6s27.823,4.171,39,5,12.115-2.1,20-2a116.6,116.6,0,0,1,14,1l10-5s11.033,2.584,14-2,2.243-11.1,2-15,1.236-16.74,1.49-23.024S508.389,83,507,78c-1.379-4.964,2.149-18.449,2-24-0.069-2.587-2-16-2-16l-2-3s-0.949-8.146-4-8-15.514-1.146-23-1-15,5.488-22,5-25.3-5.244-30-5-19.234,6.024-27,6-15.534,1.658-24,2-13.655-.439-26-1-21.861.463-29,1-12.891-5.166-25-4c-11.94,1.149-11.729-1.611-24-3-11.8-1.336-16.21-.439-27,0a222.381,222.381,0,0,1-27.558-.447c-13.875-1.4-20-2.814-31.442-.553-14.68,2.9-21.183-.654-28-1a111.152,111.152,0,0,0-26,1s-12.159-.976-21,0-22,3-22,3c-5.632-.845-18.186-3.5-23-4-4.139-.429-13.315.829-16,1s-8.548-.2-11,2A11.245,11.245,0,0,0,35,34Z"/>
</svg>
