<svg id="Guides" xmlns="http://www.w3.org/2000/svg" viewBox="0 0 600.21 259.43"><defs><style>.cls-1{fill:#fff;}</style></defs><title>downarrow</title><path class="cls-1" d="M368.35,419.33c-8.84,0-18.13-2.53-27.8-7.58-13.49-7.05-26.37-18.24-37.72-28.1-2.4-2.09-4.77-4.14-7.1-6.12-6.91-5.87-14.05-11.86-21-17.66-14.19-11.9-28.87-24.21-42.84-36.61-16.88-15-35.56-29.8-55.34-45.49-38.44-30.49-78.07-61.94-107.51-97.31a12.52,12.52,0,0,1,2-18h0a12.47,12.47,0,0,1,17.1,1.91c27.82,33.45,66.46,64.1,103.92,93.82,20.05,15.91,39,30.94,56.39,46.38,13.71,12.17,28.25,24.36,42.31,36.16,6.94,5.82,14.11,11.84,21.09,17.77,2.39,2,4.83,4.15,7.3,6.29,24.21,21,42.58,35.31,58.37,27.29,33.94-17.23,66.07-48.76,97.14-79.26,16.46-16.16,32-31.42,47.81-44.67q12.71-10.66,25.43-21.42c31.85-26.89,64.7-54.61,98.28-80.41a12.5,12.5,0,0,1,17.61,2.4h0a12.49,12.49,0,0,1-2.37,17.42c-33.15,25.46-65.76,53-97.39,79.69q-12.76,10.77-25.49,21.47c-15.06,12.63-30.27,27.55-46.37,43.36-32.43,31.83-66,64.74-103.34,83.71A44.89,44.89,0,0,1,368.35,419.33Z" transform="translate(-66.17 -159.9)"/></svg>