<svg xmlns="http://www.w3.org/2000/svg" xmlns:xlink="http://www.w3.org/1999/xlink" viewBox="0 0 1343.36 776.14"><defs><style>.cls-1{fill:none;}.cls-2{clip-path:url(#clip-path);}.cls-3{fill:#1d1d1b;}</style><clipPath id="clip-path" transform="translate(23.83 21.23)"><rect class="cls-1" width="1280" height="720"/></clipPath></defs><title>mask</title><g id="Слой_2" data-name="Слой 2"><g class="cls-2"><path class="cls-3" d="M23.52,28.47C99,5,178.72,17.27,255.71,24.83c39.85,3.91,79.54,5.71,119.58,4.34,41.06-1.41,82-4.6,123.1-5.3,83.24-1.42,166.35,4.32,249.48,7.45s165.82,1,248.81-1.72c41.55-1.37,83.11-2.47,124.63-4.39,20.6-.95,41.2-2.17,61.74-3.95,19.92-1.73,39.82-4.84,59.82-5.37a128.15,128.15,0,0,1,29.52,2.28c9.42,1.95,13.45-12.51,4-14.46-19.73-4.08-39.57-3-59.46-.88-20.31,2.15-40.62,4.14-61,5.48-41.53,2.72-83.16,3.78-124.76,5.15-83.64,2.77-167.3,6.24-251,3.93S613.07,8.87,529.42,8.65c-82.74-.21-165.26,10.2-247.94,3.51C203.86,5.89,125-9,47.5,6.8a286.65,286.65,0,0,0-28,7.21c-9.19,2.85-5.27,17.33,4,14.46Z" transform="translate(23.83 21.23)"/><path class="cls-3" d="M1269,14.14c5.71,90.67,4.09,181.58.57,272.3-3.51,90.52-8.87,181-10.59,271.56-1,51-.75,102,1.55,153,.44,9.62,15.44,9.67,15,0-4.11-90.79-1.51-181.7,2.36-272.46,3.86-90.48,9-180.94,9.78-271.52.46-51-.47-102-3.67-152.86-.6-9.59-15.61-9.66-15,0Z" transform="translate(23.83 21.23)"/><path class="cls-3" d="M10.24,718.57C49.77,708.88,90.5,707.48,131,707.86c41.69.38,83.38,1.6,125,2.47l250.11,5.2c39.8.83,79.74,2,119.28-3.63C645.37,709.05,665,704.28,685,702c20.2-2.25,40.28-.93,60.44,1.13,82.39,8.4,165.72,6,248.45,6.92q140.27,1.54,280.5,3.91c9.66.16,9.66-14.84,0-15q-126.35-2.13-252.7-3.6-63.18-.74-126.35-1.3c-41-.37-82.18.08-123.09-3.29-20.26-1.68-40.43-4.68-60.78-5-20-.35-39.65,2.78-59.24,6.36-20,3.66-39.93,6.91-60.28,8.14s-40.67,1.11-61,.75c-83.2-1.46-166.39-3.44-249.59-5.17-46.86-1-93.73-2.18-140.59-2.88-45.07-.68-90.5.34-134.5,11.12-9.37,2.3-5.4,16.77,4,14.47Z" transform="translate(23.83 21.23)"/><path class="cls-3" d="M12.29,20.81C3,40.53,6.26,61.49,10.87,82c2.39,10.64,5,21.23,6.22,32.1A263.3,263.3,0,0,1,18.31,149c-.55,23-3,46-3.73,69-.75,22.81-.41,45.64.33,68.44,1.51,46.23,4.71,92.45,3.95,138.74a582.14,582.14,0,0,1-4.68,67.67c-1.52,11.29-3.92,22.38-5.83,33.59-.89,5.2-1.45,10.34-.68,15.59s3.05,10.18,4.74,15.31c3.84,11.67,4.07,24.23,4.69,36.39q1,19.54.93,39.13a749.35,749.35,0,0,1-4.42,79.11l7.5-7.5,2.55,2c.49-4-3.8-7.5-7.5-7.5-4.46,0-7,3.46-7.5,7.5-.89,7.25,5.5,13.11,12.45,13,4.38,0,7.06-3.42,7.5-7.5,4.93-45.5,6.76-92.41,2.15-138a113.91,113.91,0,0,0-2.42-15.38c-1.28-5.34-3.66-10.25-5.17-15.5-2.79-9.68,1.31-20.58,3-30.17a531.1,531.1,0,0,0,7.14-68.57c2-45.23-.69-90.49-2.55-135.68-.93-22.82-1.68-45.66-1.57-68.5.12-22.64,1.63-45.15,3-67.74,1.61-25.77,2.11-51.62-3-77C24.89,74.09,15.4,49.36,25.24,28.38c4.07-8.69-8.85-16.31-12.95-7.57Z" transform="translate(23.83 21.23)"/><path class="cls-3" d="M991.46,26c29.13,3.35,58.26,7.18,87.45,10A170.16,170.16,0,0,0,1123,34.87c13.56-2.22,26.9-5.15,40.62-6.35a262.64,262.64,0,0,1,84,6c5.29,1.27,9,1.9,9.72,7.76.71,6.08-.22,12.18.7,18.29,1.94,12.74,8.88,24.31,13.46,36.22a273.06,273.06,0,0,1,18.12,91.64c.23,9.64,15.23,9.68,15,0a286.22,286.22,0,0,0-15.49-87c-4.48-12.91-11.36-25.11-15.16-38.21-3.31-11.42,1.56-25.15-6.56-35.05-4-4.9-9.86-6.72-15.8-8.14-7.93-1.9-16-3.41-24-4.58a274.58,274.58,0,0,0-88.37,1.2c-15,2.59-29.48,5.7-44.82,5.27-16.87-.48-33.71-3-50.46-5L991.46,11c-4-.47-7.5,3.77-7.5,7.5,0,4.44,3.45,7,7.5,7.5Z" transform="translate(23.83 21.23)"/><path class="cls-3" d="M1267,16.14,1241,3.66l-5.78,13.71a124.12,124.12,0,0,1,53,33.8c6.6,7.07,17.19-3.55,10.61-10.61a139.63,139.63,0,0,0-59.66-37.65c-8-2.56-13.52,10-5.78,13.7l26,12.48c8.67,4.16,16.28-8.77,7.58-12.95Z" transform="translate(23.83 21.23)"/><path class="cls-3" d="M1292.82,26.66a99.72,99.72,0,0,0-23.22-45.48c-6.42-7.23-17,3.41-10.61,10.61a84.52,84.52,0,0,1,19.37,38.86c2,9.43,16.47,5.44,14.46-4Z" transform="translate(23.83 21.23)"/><path class="cls-3" d="M.82,36.79C-2.43,26.24,15.44,22.85,22.36,22c11.13-1.45,22.19-3.12,30.37-11.56,4.66-4.81,1.14-12.5-5.3-12.81-30.79-1.46-58,24-59.86,54.44h15C3.14,38.27,4.1,22.51,13,11.26c6.25-7.87,20.35-14.2,29.4-7.16L40.51-3.2c-.46,1.52-1.27,2.61-3,2.74l2,14.74a333.09,333.09,0,0,1,168-8.92l2-14.73-59.8,3c-9.67.49-9.63,14.39,0,15a3101.08,3101.08,0,0,0,315,3.93q44.43-1.73,88.81-4.72v-15c-74.23,8.68-149,3.67-223.27-1.47v15Q514,12,698,13.69t367.85-.59q103.45-1.26,206.89-3.79c9.63-.24,9.67-15.24,0-15q-183.88,4.47-367.82,5T537.05-3.54Q433.61-5.46,330.2-8.62c-9.73-.3-9.55,14.33,0,15,74.28,5.14,149,10.15,223.27,1.47,9.35-1.09,9.8-15.66,0-15A3098,3098,0,0,1,238.54-2Q194.1-3.53,149.71-6.36v15l59.8-3c8-.41,10.68-12.94,2-14.73A348.81,348.81,0,0,0,35.55-.19c-7.67,2.44-6.82,15.46,2,14.73C46.06,13.85,52.48,9.07,55,.79c.7-2.3.08-5.74-1.93-7.29C38.59-17.76,19.3-14.76,6-3-9.29,10.54-11.63,32.93-12.43,52c-.4,9.69,14.41,9.58,15,0C4,29.43,25.14,11.52,47.43,12.58L42.12-.22c-9.32,9.62-25.8,6.09-37.45,11-11.88,5-22.54,16.3-18.32,30,2.83,9.2,17.32,5.28,14.47-4Z" transform="translate(23.83 21.23)"/><path class="cls-3" d="M701.64,20.88c38,3.72,75.56,6.32,113.69,3.35,37-2.89,73.8-8.88,110.91-11.13a365.25,365.25,0,0,1,62.92,1.11v-15q-73.29,5.63-146.8,7.21c-9.64.21-9.67,15.21,0,15q73.49-1.59,146.8-7.21c9.77-.74,9.52-13.92,0-15C914.79-9.16,841.34,12.57,767,10.7c-21.85-.55-43.62-2.69-65.36-4.82-4-.4-7.5,3.73-7.5,7.5,0,4.38,3.45,7.1,7.5,7.5Z" transform="translate(23.83 21.23)"/><path class="cls-3" d="M1271.6,292.88l-8.83,89.4c-1.42,14.4-3.06,28.79-4.24,43.2a79.79,79.79,0,0,0,.5,20.13c1.17,6.74,4.35,12.55,6.67,18.89,4.66,12.7,3.67,27.57,4.37,40.9l2.34,44.92,4.64,88.85,5.2,99.84c.5,9.6,15.51,9.66,15,0L1288,561.3l-2.29-43.92c-.75-14.47-.8-29.18-2.58-43.56-1.7-13.73-10-25.25-10-39.21s2.31-28.38,3.7-42.39l9.81-99.34c.4-4-3.73-7.5-7.5-7.5-4.38,0-7.1,3.45-7.5,7.5Z" transform="translate(23.83 21.23)"/><path class="cls-3" d="M1292.83,359.63c-3-3.83-8.38-4.59-12.8-3.06-5.15,1.77-8,6.56-8.86,11.72-2,11.85-1.34,24.62-1.87,36.62-1.1,25.16-2.71,50.37-2.81,75.57a302.3,302.3,0,0,0,1.84,36.6c.7,5.93,1.57,11.85,2.74,17.71,1.09,5.45,1.93,11.81,4.7,16.7,9.76,17.26,38.09,10.47,36.56-10.12-.76-10.24-8.59-19.06-19.31-18.66a20.68,20.68,0,0,0-19.59,20.35c0,9.65,15,9.67,15,0,0-2.92,3.39-6.54,6.54-5.17,2.34,1,3.27,5.35,1.78,7.39-1.94,2.66-6.66,1.05-8-1.36-1.61-2.83-1.92-7.19-2.61-10.37q-1.29-5.94-2.18-12c-4.9-32.89-1.81-66.75-.36-99.79l1.26-28.79.6-13.9c.11-2.44.44-5,.34-7.39,0-.27.28-1,.17-1.26-.48-1.07-1.58,2.48-3.72-.21,2.54,3.2,8,2.6,10.61,0,3.17-3.11,2.5-7.45,0-10.61Z" transform="translate(23.83 21.23)"/><path class="cls-3" d="M1277.9,313.25l.49,211.39c0,9.1-.47,18.38.28,27.45.65,7.92,2.73,15.78,8.94,21.18,4.13,3.59,11,2.46,12.54-3.31a147.44,147.44,0,0,0,3.28-57.54c-1-7.74-12.58-6.49-14.46,0-22,76-5.29,156.17-20.65,233.1l14.73,2A1214.06,1214.06,0,0,1,1285.16,573c.81-9.62-14.19-9.56-15,0a1214.06,1214.06,0,0,0-2.11,174.48c.48,8,13,10.74,14.74,2,15.34-76.9-1.34-157.26,20.64-233.1H1289a128.41,128.41,0,0,1-3.28,49.56l12.53-3.31c-4.55-3.95-4.69-10.06-4.78-15.73-.12-8.09,0-16.18-.06-24.27l-.12-50.62L1293,370.81l-.13-57.56c0-9.65-15-9.67-15,0Z" transform="translate(23.83 21.23)"/><path class="cls-3" d="M1.7,20.72,13.45,197.1l14.73-2Q12.35,110.91,3.39,25.67l-14.73,2A1330.49,1330.49,0,0,1,13.19,191.42c.82,9.46,15.09,9.8,15,0A621.1,621.1,0,0,0,15.9,74.36c-1.65-8.2-15.44-6.48-14.73,2q7.47,90.09,11.4,180.41h15q-7-58.71-9.77-117.81c-.45-9.59-15-9.71-15,0L2.7,269.16c0,9.84,14,9.42,15,0a266.91,266.91,0,0,0-2.94-74C13.24,186.63.24,189,0,197.19Q-1.74,264.9.17,332.63c.27,9.65,14.77,9.68,15,0l2.28-95.46h-15L.51,371.09c-.14,9.71,14.46,9.58,15,0l4.82-86h-15l.46,132.55,14.73-2a269,269,0,0,1-2.32-59.81H3.2L8.53,482.2c.41,9.61,15,9.71,15,0l.17-68.82c0-9.79-14.17-9.47-15,0L3.07,477.79C2.17,488,1.38,498.22.38,508.43c-.62,6.34-1.53,14.89-7.35,18.71l11,8.47Q10.6,499,17.16,462.48H2.69a146.26,146.26,0,0,1-4,58.1c-2.54,9.33,11.93,13.31,14.46,4a165.16,165.16,0,0,0,4-66.08c-1-7.29-13.21-7-14.47,0l-13.11,73.13c-1.06,5.93,5.08,12.37,11,8.47,17.14-11.26,15.21-36.53,16.79-54.5l6.31-72.21H8.7L8.53,482.2h15L18.2,355.82c-.41-9.71-14.33-9.6-15,0a286.23,286.23,0,0,0,2.86,63.8c1.31,8.49,14.76,6.26,14.73-2l-.46-132.55c0-9.71-14.47-9.59-15,0l-4.82,86h15l1.94-133.92c.14-9.66-14.77-9.65-15,0L.17,332.63h15q-1.9-67.69-.14-135.44l-14.73,2a253.2,253.2,0,0,1,2.4,70h15L17.8,139H2.8Q5.55,198,12.57,256.76c.48,4,3.1,7.5,7.5,7.5,3.92,0,7.67-3.44,7.5-7.5q-3.93-90.31-11.4-180.41l-14.74,2A599.08,599.08,0,0,1,13.19,191.42h15A1364,1364,0,0,0,3.12,23.67c-1.74-8.12-15.62-6.49-14.73,2q9.15,87.18,25.33,173.42c1.55,8.26,15.29,6.44,14.73-2L16.7,20.72c-.63-9.58-15.64-9.66-15,0Z" transform="translate(23.83 21.23)"/><path class="cls-3" d="M-8.61,536A596.35,596.35,0,0,1,14.52,696.44l14.73-2C20,652.89,14.86,610.62,9.83,568.39h-15q4.83,37.08,7.64,74.39,1.35,18.15,2.22,36.34.43,9.35.75,18.68c.2,5.88-.87,12.71,3.49,17.26,2.47,2.58,6.08,2.58,9.09,1.17a7.53,7.53,0,0,0,4.19-5.47c.6-3.12-.35-6.9-3.45-8.47l-.44-.23c-8.6-4.34-16.2,8.6-7.58,13l.45.22-3.44-8.47-.14.71L11.06,703l-.61.28,9.09,1.17c1.55,1.62.89,1,1.09-.74a35.33,35.33,0,0,0-.16-4.92c-.09-2.95-.2-5.9-.31-8.85q-.33-8.37-.77-16.72-.91-17.69-2.3-35.35Q14.38,603,9.83,568.39c-.52-4-3.07-7.5-7.5-7.5-3.68,0-8,3.45-7.5,7.5,5.18,43.55,10.4,87.19,20,130,1.85,8.32,14.79,6.39,14.73-2A612.46,612.46,0,0,0,5.86,532c-2.66-9.26-17.14-5.32-14.47,4Z" transform="translate(23.83 21.23)"/><path class="cls-3" d="M-5.3,418.4l-.46-1,1,3.78q-5.75.92-3.9,3.21A9.35,9.35,0,0,1-7.72,426a35.21,35.21,0,0,1,1.83,4.29,66.57,66.57,0,0,1,2.62,9.2,63.57,63.57,0,0,1,.76,19.66c-.41,4,3.74,7.5,7.5,7.5,4.4,0,7.08-3.45,7.5-7.5,1.4-13.68-.56-30-7.94-41.94-3.31-5.36-9.25-9.52-15.79-7.5-7.27,2.25-10.07,9.71-7,16.31,4.06,8.74,17,1.13,13-7.57Z" transform="translate(23.83 21.23)"/><path class="cls-3" d="M15,729.41a621.9,621.9,0,0,1,154.33-4c7.25.7,10.47-11,3.79-14-35.8-16.1-73.39,1.36-110.49-3.06l2,14.73A761.73,761.73,0,0,1,221,715.7l-3.79-14A81.5,81.5,0,0,1,152,712.13l-2,14.73a1115,1115,0,0,0,125.52-6.63l-2-14.73-30.9,9.08c-8.22,2.41-6.45,14.39,2,14.73A586.54,586.54,0,0,0,360,722.39c8.56-1.35,6.2-14.61-2-14.73l-90.91-1.35v15c66.84-3.83,133.72.3,200.52,3,66.56,2.73,133.15,3.53,199.28-5.65,34.25-4.75,70.17-11,103.52,1.58,9,3.41,13-11.08,4-14.47-29.63-11.19-61.62-8.39-92.33-4.24-33,4.46-65.87,8.16-99.22,9.23-67.17,2.14-134.27-2.78-201.37-5-38.12-1.27-76.3-1.64-114.39.54-9.58.55-9.73,14.86,0,15L358,722.66l-2-14.73a567.62,567.62,0,0,1-111.42,6.38l2,14.73,30.9-9.08c7.76-2.28,6.71-15.68-2-14.73A1115,1115,0,0,1,150,711.86c-8.42,0-10.23,12.53-2,14.73a96.53,96.53,0,0,0,76.8-11.92,7.56,7.56,0,0,0-3.78-14,780.85,780.85,0,0,0-160.36,8c-3.67.56-5.82,4.92-5.37,8.23.53,4,3.59,6.05,7.36,6.5,17.68,2.11,35.26-.81,52.81-2.77,16.62-1.86,34.43-3.27,50.11,3.78l3.78-14A636.67,636.67,0,0,0,11,715c-4,.61-6.23,5.65-5.23,9.22C7,728.45,11,730,15,729.41Z" transform="translate(23.83 21.23)"/><path class="cls-3" d="M656.85,729.51a120.61,120.61,0,0,1,47.81-7.45c17,.86,33.53,5.76,50.51,7.1a86.52,86.52,0,0,0,24.25-1.33c7.93-1.63,15.44-4.73,23.18-7,16-4.74,32.55-3.48,49-2q29.54,2.6,59.06,5.23c9.62.86,9.56-14.15,0-15l-52.31-4.63c-16.94-1.5-34-3.28-50.84-.18-8,1.47-15.61,4.47-23.38,6.88a72,72,0,0,1-24.26,3.37c-17.05-.58-33.6-5.57-50.56-7.06a131.32,131.32,0,0,0-56.41,7.67c-9,3.3-5.1,17.8,4,14.46Z" transform="translate(23.83 21.23)"/><path class="cls-3" d="M776.77,702.41l-.52-.39,3.45,8.47q-5.52,4.44-.69,4l2.93.27,5.86.53,12.7,1.17,24.42,2.23c15.25,1.4,31,1.88,45.32,7.72,3.78,1.54,8.21-1.67,9.23-5.24,1.22-4.27-1.5-7.71-5.24-9.22-17.51-7.12-37.56-7.18-56.15-8.88l-29.3-2.69c-7.63-.7-20.85-4.3-23.54,6.1-.93,3.56.72,6.4,3.44,8.47l.51.39c3.25,2.47,8.36.49,10.27-2.69,2.29-3.82.51-7.82-2.69-10.26Z" transform="translate(23.83 21.23)"/><path class="cls-3" d="M836.21,726.2a478.56,478.56,0,0,1,130.46-7.55l-2-14.74a218.07,218.07,0,0,1-69.44,7.4v15a2654.71,2654.71,0,0,1,298.54-1.85q42.48,2.13,84.87,5.64c7.48.61,10.13-10.59,3.79-14a120.64,120.64,0,0,0-47.89-13.87l2,14.73a46,46,0,0,1,24.54,3.08c3.8,1.5,8.2-1.64,9.23-5.24,1.22-4.24-1.49-7.74-5.24-9.22a60.71,60.71,0,0,0-32.52-3.08c-8.83,1.43-5.89,14.12,2,14.73a102.32,102.32,0,0,1,40.32,11.82l3.78-14a2654,2654,0,0,0-298.45-7.75q-42.51,1.29-85,4c-9.63.6-9.69,14.48,0,15a231.76,231.76,0,0,0,73.43-7.93c8.5-2.33,6.2-14.1-2-14.73a493.5,493.5,0,0,0-134.45,8.09c-9.46,1.87-5.45,16.33,4,14.46Z" transform="translate(23.83 21.23)"/><path class="cls-3" d="M1164.85,715.4c11.15-.7,22.7-2.3,33.85-1,10.79,1.23,21.28,3.78,32.17,4.37a161.58,161.58,0,0,0,62.9-9.24c9-3.22,5.14-17.72-4-14.47a150.36,150.36,0,0,1-60.74,8.6c-10.24-.68-20.17-3.16-30.35-4.26-11.17-1.2-22.68.34-33.85,1-9.59.6-9.66,15.61,0,15Z" transform="translate(23.83 21.23)"/><path class="cls-3" d="M1006,706.33l1,2.09v4c-.29,1.82-2.16,1.32,1.85.83,2.27-.28,4.56-.52,6.84-.79l15.64-1.79,30.3-3.49c19.85-2.28,39.71-5,59.63-6.58,20.1-1.6,40.24-.33,60.35.49l61.38,2.53,69.3,2.85c9.66.39,9.64-14.61,0-15l-134.64-5.54c-22-.91-43.79-1.72-65.77.53-22.31,2.29-44.58,5.07-66.87,7.63l-37.14,4.27c-5,.57-9.37,1.32-12.86,5.25-3.36,3.78-3.84,10,.39,13.34,3.2,2.54,7.49,3.06,10.61,0,2.65-2.59,3.16-8.09,0-10.61Z" transform="translate(23.83 21.23)"/><path class="cls-3" d="M1246.66,714.94c11.57,4.43,19.13-11,20.95-20,2.21-10.86.75-21.94,2.08-32.88,1.55-12.8,5.15-25.53,7.89-38.13l8.91-41c2-9.41-12.41-13.44-14.46-4-5,23-10.19,46-15,69a157.18,157.18,0,0,0-3,30.36c-.08,6.35.52,20.15-6.69,23.23l3.78-1-.5-.09c-9-3.45-12.92,11-4,14.47Z" transform="translate(23.83 21.23)"/><path class="cls-3" d="M1249.07,19.29,1248,84.45c-.33,20.32-.24,40,4.2,59.91,2.24,10.06,4.86,20,6.31,30.24a259.19,259.19,0,0,1,2.21,31.74c.39,21.22-.29,42.47-.09,63.7.77,85.95,7.66,171.7,15,257.3,4.11,47.72,7.84,95.54,15.24,142.9.63,4,5.65,6.24,9.23,5.23,4.27-1.19,5.87-5.19,5.24-9.22-6.53-41.78-10-84-13.6-126.06-3.68-42.5-7.3-85-10.19-127.55s-5-85.12-5.76-127.74c-.36-21.34-.14-42.67,0-64,.1-20.93-.66-41.86-5-62.41-2.3-10.87-5.43-21.63-6.89-32.67s-1.22-22.31-1-33.45q.58-36.52,1.19-73.06c.16-9.65-14.84-9.66-15,0Z" transform="translate(23.83 21.23)"/><path class="cls-3" d="M1266.31,75.69a14.79,14.79,0,0,0-13,7.68c-2.89,5.14-2.22,11-1.47,16.52q2.64,19.52,5.33,39L1267.79,217c1.14,8.38,15.08,6.36,14.73-2q-3.37-80.22-.73-160.52c.32-9.66-14.65-9.64-15,0a138.91,138.91,0,0,0,.93,21.77c.49,4,3.1,7.5,7.5,7.5,3.67,0,8-3.45,7.5-7.5a138.91,138.91,0,0,1-.93-21.77h-15q-2.64,80.25.73,160.52l14.73-2-8.79-64.41-4.26-31.23-2.26-16.59c-.31-2.28-.71-4.57-.81-6.87a7.53,7.53,0,0,1,0-2.68c.38-1.06.78-.53.13-.54,9.65,0,9.67-15,0-15Z" transform="translate(23.83 21.23)"/><path class="cls-3" d="M795.5,733.47a264.73,264.73,0,0,0,37.77,1.39c5.37-.19,11.25,0,14.67-4.91,2.93-4.2,2-10.28-1.55-13.86-4.2-4.18-10-3.79-15.38-3.41q-9.1.65-18.23.67a265.48,265.48,0,0,1-38.21-2.58c-4-.57-8,1-9.22,5.24-1,3.51,1.23,8.66,5.24,9.22A288.4,288.4,0,0,0,826.22,728c2.24-.12,4.47-.28,6.71-.44l2.59-.19q5,.57,2.6-7.7c-1.41-.76-6.08.26-7.75.3-1.94,0-3.88.08-5.82.08a265.92,265.92,0,0,1-29-1.56c-4-.43-7.5,3.76-7.5,7.5,0,4.41,3.45,7.07,7.5,7.5Z" transform="translate(23.83 21.23)"/><path class="cls-3" d="M957.65,18.1q31.71.57,63.41.63c20.17,0,41.16,1.31,60.79-4.15,9.29-2.58,5.34-17.06-4-14.46-18.87,5.24-39.38,3.65-58.78,3.6q-30.71-.06-61.43-.62c-9.65-.17-9.65,14.83,0,15Z" transform="translate(23.83 21.23)"/><path class="cls-3" d="M710.14,2.78c-9.38,1.87-19.06,3.84-28.62,2.09s-13.48,12.73-4,14.46c12.39,2.27,24.37.35,36.58-2.08,9.46-1.89,5.46-16.35-4-14.47Z" transform="translate(23.83 21.23)"/><path class="cls-3" d="M149.68,0c-20.89-9.59-42.82-4.25-64.85-5.75-9.64-.65-9.6,14.35,0,15,18.67,1.27,39.61-4.41,57.28,3.7,3.71,1.71,8,1,10.26-2.69,1.93-3.21,1-8.57-2.69-10.26Z" transform="translate(23.83 21.23)"/><path class="cls-3" d="M11.27-13.95C-5.9-9.74-24,5.53-23.83,24.52c.08,9.65,15.08,9.67,15,0-.1-12.29,13.46-21.4,24.09-24,9.37-2.3,5.4-16.76-4-14.46Z" transform="translate(23.83 21.23)"/><path class="cls-3" d="M-3.7,97.32c-6.72,21.37-5.67,43.8-4.59,65.88.54,11,1,22,.38,33-.69,11.9-2.46,23.71-1.72,35.65.59,9.59,15.59,9.66,15,0-.7-11.3.84-22.47,1.6-33.72A285.57,285.57,0,0,0,6.8,165c-1-21.37-2.55-43,4-63.74,2.9-9.23-11.57-13.17-14.46-4Z" transform="translate(23.83 21.23)"/><path class="cls-3" d="M-7.67,295.1c-4.79,14-6.8,27.22-3.77,41.83,2.73,13.14,8.55,25.6,10.25,39,1.85,14.54-2.82,28.93-4,43.33-.57,6.84.67,14.12-1,20.82-1.85,7.59-5.07,14.69-6.68,22.4-2,9.42,12.49,13.45,14.46,4C3.16,459,6.1,452.2,8.07,444.94s1.19-14.65,1.49-22.06c.6-14.64,5.37-28.89,4.54-43.63-.78-13.79-5.93-26.58-9.49-39.77a66.29,66.29,0,0,1-2.78-18.6c.14-7.52,2.55-14.73,5-21.79,3.14-9.15-11.35-13.08-14.46-4Z" transform="translate(23.83 21.23)"/><path class="cls-3" d="M-7.14,451.86c-3.89,14.37-.75,29.05-2.94,43.56s-7.59,28.24-6.48,43.05c.72,9.57,15.73,9.65,15,0-1-14,4.23-27.16,6.21-40.86s-1-28.21,2.68-41.76c2.53-9.33-11.94-13.31-14.47-4Z" transform="translate(23.83 21.23)"/><path class="cls-3" d="M-5.53,541.1a50.7,50.7,0,0,1,3.33,11c.64,3.74.84,7.19,2.55,10.65,1.43,2.89,3.49,5.28,4.43,8.41,1.11,3.66,1.53,7.68,2.23,11.44,1.55,8.19,15.73,6.44,14.73-2l-.36-3c-.47-4-3.1-7.5-7.5-7.5-3.68,0-8,3.45-7.5,7.5l.36,3,14.74-2c-1.41-7.47-2.59-14.15-6.61-20.71C13.1,555,13,552.27,12.42,549a53.47,53.47,0,0,0-3.49-11.86c-1.55-3.72-5-6.43-9.22-5.24-3.52,1-6.81,5.46-5.24,9.23Z" transform="translate(23.83 21.23)"/><path class="cls-3" d="M11.9,538.46C10.16,528.8,9.55,518,4.84,509.28c-4.58-8.51-17.53-.94-13,7.57,1.92,3.56,2.35,7.76,3.06,11.7l2.5,13.9c1.7,9.48,16.16,5.46,14.46-4Z" transform="translate(23.83 21.23)"/><path class="cls-3" d="M1.12,588.28c1,11,1.92,21.93.14,32.85-1.83,11.26-3.37,22.19-3.09,33.64C-1.31,676.25,3,698.22-3.1,719.3l14.73,2q.1-61.47-5.63-122.73c-.89-9.53-15.9-9.62-15,0q5.75,61.2,5.63,122.73c0,8.49,12.4,10.14,14.73,2,6.3-21.91,2.6-44.35,1.86-66.68-.38-11.43,1.12-22.14,2.81-33.4,1.76-11.73,1.18-23.17.09-34.93-.88-9.54-15.89-9.63-15,0Z" transform="translate(23.83 21.23)"/></g></g></svg>